<?xml version="1.0" encoding="UTF-8" standalone="no"?>
<!-- Created with Inkscape (http://www.inkscape.org/) -->

<svg
   xmlns:osb="http://www.openswatchbook.org/uri/2009/osb"
   xmlns:dc="http://purl.org/dc/elements/1.1/"
   xmlns:cc="http://creativecommons.org/ns#"
   xmlns:rdf="http://www.w3.org/1999/02/22-rdf-syntax-ns#"
   xmlns:svg="http://www.w3.org/2000/svg"
   xmlns="http://www.w3.org/2000/svg"
   xmlns:xlink="http://www.w3.org/1999/xlink"
   xmlns:sodipodi="http://sodipodi.sourceforge.net/DTD/sodipodi-0.dtd"
   xmlns:inkscape="http://www.inkscape.org/namespaces/inkscape"
   width="640"
   height="480"
   viewBox="0 0 640.00001 480.00001"
   id="svg6727"
   version="1.1"
   inkscape:version="0.91 r13725"
   sodipodi:docname="chat-4.svg">
  <defs
     id="defs6729">
    <linearGradient
       id="linearGradient8720"
       osb:paint="solid">
      <stop
         style="stop-color:#000000;stop-opacity:1;"
         offset="0"
         id="stop8722" />
    </linearGradient>
    <linearGradient
       id="8">
      <stop
         stop-color="#bff500"
         id="L" />
      <stop
         stop-color="#8bb300"
         offset="1"
         id="M" />
    </linearGradient>
    <linearGradient
       id="9">
      <stop
         stop-color="#eee"
         id="N" />
      <stop
         stop-opacity="0"
         stop-color="#eee"
         offset="1"
         id="O" />
    </linearGradient>
    <linearGradient
       id="A">
      <stop
         stop-color="#2c72c7"
         id="P" />
      <stop
         stop-color="#00438a"
         offset="1"
         id="Q" />
    </linearGradient>
    <linearGradient
       id="B">
      <stop
         id="R" />
      <stop
         stop-opacity="0"
         offset="1"
         id="S" />
    </linearGradient>
    <filter
       id="D"
       color-interpolation-filters="sRGB"
       height="2.152"
       width="1.095"
       y="-0.576"
       x="-0.048">
      <feGaussianBlur
         stdDeviation="1.99915"
         id="V" />
    </filter>
    <radialGradient
       gradientTransform="matrix(1,0,0,0.08292683,2.9705887,107.23974)"
       gradientUnits="userSpaceOnUse"
       xlink:href="#B"
       id="E"
       r="50.25"
       cy="118.2"
       cx="61.03" />
    <radialGradient
       gradientTransform="matrix(-6.0081971e-8,-0.47891081,0.83485679,0,15.317558,64.588036)"
       gradientUnits="userSpaceOnUse"
       xlink:href="#9"
       id="F"
       r="51.09"
       cy="60.37"
       cx="109.07" />
    <radialGradient
       gradientTransform="matrix(1.8601236,0,0,1.0001537,-54.456554,-0.00931043)"
       gradientUnits="userSpaceOnUse"
       xlink:href="#9"
       id="G"
       r="54.679"
       cy="-19.692"
       cx="63.31" />
    <linearGradient
       id="H">
      <stop
         stop-color="#fff"
         id="W" />
      <stop
         stop-opacity="0.551"
         offset="1"
         id="X" />
    </linearGradient>
    <radialGradient
       gradientTransform="matrix(-0.68013578,0.81949237,-0.88457457,-0.73415046,114.12273,-18.31727)"
       gradientUnits="userSpaceOnUse"
       xlink:href="#H"
       id="I"
       r="47.23"
       cy="-9.828"
       cx="87.49" />
    <linearGradient
       gradientUnits="userSpaceOnUse"
       xlink:href="#A"
       id="J"
       y2="114.9"
       x2="0"
       y1="6.281" />
    <linearGradient
       gradientUnits="userSpaceOnUse"
       xlink:href="#8"
       id="K"
       y2="101.12"
       x2="0"
       y1="12.354" />
    <linearGradient
       id="linearGradient4750">
      <stop
         offset="0"
         style="stop-color:#ffffff"
         id="stop4752" />
      <stop
         offset=".37931"
         style="stop-color:#fefefe"
         id="stop4758" />
      <stop
         offset="1"
         style="stop-color:#1d1d1d"
         id="stop4754" />
    </linearGradient>
  </defs>
  <sodipodi:namedview
     id="base"
     pagecolor="#333333"
     bordercolor="#666666"
     borderopacity="1.0"
     inkscape:pageopacity="0"
     inkscape:pageshadow="2"
     inkscape:zoom="1.4142136"
     inkscape:cx="303.41272"
     inkscape:cy="203.47852"
     inkscape:document-units="px"
     inkscape:current-layer="layer1"
     showgrid="false"
     units="px"
     inkscape:window-width="1440"
     inkscape:window-height="821"
     inkscape:window-x="0"
     inkscape:window-y="24"
     inkscape:window-maximized="1" />
  <metadata
     id="metadata6732">
    <rdf:RDF>
      <cc:Work
         rdf:about="">
        <dc:format>image/svg+xml</dc:format>
        <dc:type
           rdf:resource="http://purl.org/dc/dcmitype/StillImage" />
        <dc:title />
      </cc:Work>
    </rdf:RDF>
  </metadata>
  <g
     inkscape:label="Layer 1"
     inkscape:groupmode="layer"
     id="layer1"
     transform="translate(0,-572.36216)">
    <path
       style="fill:none;fill-rule:evenodd;stroke:#8b9fba;stroke-width:4.00372267;stroke-linecap:round;stroke-linejoin:round;stroke-miterlimit:4;stroke-dasharray:none;stroke-opacity:1"
       d="m 394.9821,670.42582 150.67581,0.0644"
       id="path4558-1-3-7-6"
       inkscape:connector-curvature="0"
       sodipodi:nodetypes="cc" />
    <rect
       style="color:#000000;clip-rule:nonzero;display:inline;overflow:visible;visibility:visible;opacity:1;isolation:auto;mix-blend-mode:normal;color-interpolation:sRGB;color-interpolation-filters:linearRGB;solid-color:#000000;solid-opacity:1;fill:#333333;fill-opacity:1;fill-rule:nonzero;stroke:#8b9fba;stroke-width:4;stroke-linecap:butt;stroke-linejoin:round;stroke-miterlimit:0;stroke-dasharray:none;stroke-dashoffset:0;stroke-opacity:1;color-rendering:auto;image-rendering:auto;shape-rendering:auto;text-rendering:auto;enable-background:accumulate"
       id="rect8702-3-3-2-7"
       width="70.599113"
       height="60.001972"
       x="322.86758"
       y="639.31976" />
    <path
       style="fill:none;fill-rule:evenodd;stroke:#8b9fba;stroke-width:4;stroke-linecap:round;stroke-linejoin:round;stroke-miterlimit:4;stroke-dasharray:none;stroke-opacity:1"
       d="m 311.28121,670.37605 11.05055,0.2571"
       id="path4558-1-3-7-5"
       inkscape:connector-curvature="0"
       sodipodi:nodetypes="cc" />
    <text
       xml:space="preserve"
       style="font-style:normal;font-weight:normal;font-size:40px;line-height:125%;font-family:Sans;letter-spacing:0px;word-spacing:0px;fill:#000000;fill-opacity:1;stroke:none;stroke-width:1px;stroke-linecap:butt;stroke-linejoin:miter;stroke-opacity:1"
       x="480"
       y="684.97449"
       id="text9606"
       sodipodi:linespacing="125%"><tspan
         sodipodi:role="line"
         id="tspan9608"
         x="480"
         y="684.97449" /></text>
    <text
       xml:space="preserve"
       style="font-style:normal;font-weight:normal;font-size:40px;line-height:125%;font-family:Sans;letter-spacing:0px;word-spacing:0px;fill:#000000;fill-opacity:1;stroke:none;stroke-width:1px;stroke-linecap:butt;stroke-linejoin:miter;stroke-opacity:1"
       x="62.121861"
       y="760.95416"
       id="text4674"
       sodipodi:linespacing="125%"><tspan
         sodipodi:role="line"
         id="tspan4676"
         x="62.121861"
         y="760.95416" /></text>
    <path
       style="fill:none;fill-rule:evenodd;stroke:#8b9fba;stroke-width:4;stroke-linecap:butt;stroke-linejoin:miter;stroke-miterlimit:4;stroke-dasharray:16,16;stroke-dashoffset:0;stroke-opacity:1"
       d="m 171.97358,670.40188 126.66194,0 12.4247,0"
       id="path9655-2-3-2-9"
       inkscape:connector-curvature="0"
       sodipodi:nodetypes="ccc" />
    <text
       xml:space="preserve"
       style="font-style:normal;font-weight:normal;font-size:28.58349609px;line-height:125%;font-family:Sans;letter-spacing:0px;word-spacing:0px;fill:#000000;fill-opacity:1;stroke:none;stroke-width:1px;stroke-linecap:butt;stroke-linejoin:miter;stroke-opacity:1"
       x="342.22586"
       y="678.50214"
       id="text8726-0-9-2-4"
       sodipodi:linespacing="125%"><tspan
         sodipodi:role="line"
         id="tspan8728-5-9-6-9"
         x="342.22586"
         y="678.50214"
         style="font-style:normal;font-variant:normal;font-weight:normal;font-stretch:normal;font-family:'Open Sans';-inkscape-font-specification:'Open Sans';fill:#ffffff">nc</tspan></text>
    <path
       style="fill:none;fill-rule:evenodd;stroke:#8b9fba;stroke-width:4;stroke-linecap:round;stroke-linejoin:round;stroke-miterlimit:4;stroke-dasharray:none;stroke-opacity:1"
       d="m 165.2918,670.34686 16.29882,0.004"
       id="path4558-1-3-7"
       inkscape:connector-curvature="0"
       sodipodi:nodetypes="cc" />
    <g
       transform="matrix(0.37053928,0,0,0.37053928,6.890228,471.0958)"
       inkscape:label="Camada 1"
       id="layer1-7-8-8-2">
      <g
         transform="translate(-131.541,88.019993)"
         id="g3771-9-6-4">
        <g
           id="g4079-8-3-9"
           transform="matrix(0.5,0,0,0.5,52.346,193.49)">
          <path
             id="path3172-8-4-6-5"
             d="m 1022.1,253.54 c 0,-6.627 -5.373,-12 -12,-12 l -774.96,0 c -6.627,0 -12,5.373 -12,12 l 0,507 c 0,6.627 5.373,12 12,12 l 775,0 c 6.627,0 12,-5.373 12,-12 l 0,-507 z"
             style="fill:#fcfcfc;stroke:#565656;stroke-width:5;stroke-miterlimit:4;stroke-dasharray:none;stroke-opacity:1"
             inkscape:connector-curvature="0" />
          <path
             inkscape:connector-curvature="0"
             style="fill:#fcfcfc;stroke:none"
             d="m 1022.1,253.54 c 0,-6.627 -5.373,-12 -12,-12 l -774.96,0 c -6.627,0 -12,5.373 -12,12 l 0,507 c 0,6.627 5.373,12 12,12 l 775,0 c 6.627,0 12,-5.373 12,-12 l 0,-507 z"
             id="path3769-3-5-6" />
          <path
             id="path3172-3-4-8"
             style="fill:#e8e8e8"
             inkscape:connector-curvature="0"
             d="m 235.14,241.67 c -6.627,0 -12,4.5017 -12,10.054 l 0,72.63 799,0 0,-72.63 c 0,-5.5524 -5.373,-10.054 -12,-10.054 l -775,0 z" />
          <circle
             id="path4555-9-8-1"
             style="fill:#949494;fill-opacity:1"
             transform="matrix(0.5614,0,0,0.5614,-136.38,51.58)"
             cx="704.88287"
             cy="412.23389"
             r="10.814074" />
          <use
             style="fill:#949494;fill-opacity:1"
             id="use4557-5-2-2"
             xlink:href="#path4555-9-8-1"
             transform="translate(23.732,2.3452e-6)"
             height="1000"
             width="1600"
             y="0"
             x="0" />
          <use
             style="fill:#949494;fill-opacity:1"
             id="use4559-6-8-6"
             xlink:href="#use4557-5-2-2"
             transform="translate(23.733,2.3452e-6)"
             height="1000"
             width="1600"
             y="0"
             x="0" />
          <rect
             id="rect4561-7-1-6"
             style="fill:#ffffff"
             rx="3"
             ry="3"
             height="35.386002"
             width="611.53998"
             y="265.32001"
             x="340.01001" />
          <path
             id="path3116-6-4-0"
             sodipodi:nodetypes="sssccccssscccccs"
             style="color:#000000;text-indent:0;text-transform:none;block-progression:tb;fill:#949494;fill-opacity:1"
             inkscape:connector-curvature="0"
             d="m 368.68,274.4 c -4.7279,0 -8.5625,3.8486 -8.5625,8.5938 0,4.7452 3.8343,8.625 8.5625,8.625 3.5302,0 6.5631,-2.1516 7.875,-5.2188 l 0.21875,-0.53125 c -0.98428,-0.29608 -1.7553,-0.55578 -2.6562,-0.84375 l -0.1875,0.40625 c -0.9148,1.9855 -2.9263,3.3438 -5.25,3.3438 -3.1883,0 -5.75,-2.575 -5.75,-5.7812 0,-3.2062 2.5612,-5.7812 5.75,-5.7812 2.4587,0 4.4818,1.5788 5.3125,3.75 l -1.5938,0 3.2561,3.7057 3.4314,-3.7057 -2.1562,0 c -0.92162,-3.7541 -4.2305,-6.5625 -8.25,-6.5625 z" />
          <rect
             id="rect3935-0-0-2"
             style="fill:#949494;fill-opacity:1"
             height="4.8562999"
             width="22.931999"
             y="273.97"
             x="973.95001" />
          <use
             style="fill:#949494;fill-opacity:1"
             id="use3937-3-3-3"
             xlink:href="#rect3935-0-0-2"
             transform="translate(-1.4942e-6,6.6099)"
             height="1000"
             width="1600"
             y="0"
             x="0" />
          <use
             style="fill:#949494;fill-opacity:1"
             id="use3939-5-3-6"
             xlink:href="#use3937-3-3-3"
             transform="translate(-1.4942e-6,6.6099)"
             height="1000"
             width="1600"
             y="0"
             x="0" />
          <rect
             id="rect4551-2-5-4"
             style="fill:#dedede"
             height="2.4623001"
             width="799"
             y="323.81"
             x="223.14" />
        </g>
        <text
           id="text4412-2-6-4"
           style="font-size:8px;line-height:125%;font-family:Sans;letter-spacing:0px;word-spacing:0px;fill:#5b5b5b;fill-opacity:1"
           xml:space="preserve"
           y="337.47412"
           x="247.11682"
           sodipodi:linespacing="125%"><tspan
             id="tspan4414-8-8-0"
             sodipodi:role="line"
             x="247.11682"
             style="font-size:8px;fill:#5b5b5b;fill-opacity:1"
             y="337.47412">http://example.com</tspan></text>
      </g>
    </g>
    <text
       xml:space="preserve"
       style="font-style:normal;font-weight:normal;font-size:40px;line-height:125%;font-family:Sans;letter-spacing:0px;word-spacing:0px;fill:#000000;fill-opacity:1;stroke:none;stroke-width:1px;stroke-linecap:butt;stroke-linejoin:miter;stroke-opacity:1"
       x="66.639816"
       y="808.9574"
       id="text5150"
       sodipodi:linespacing="125%"><tspan
         sodipodi:role="line"
         id="tspan5152"
         x="66.639816"
         y="808.9574" /></text>
    <path
       style="fill:none;fill-rule:evenodd;stroke:#8b9fba;stroke-width:4.00372267;stroke-linecap:round;stroke-linejoin:round;stroke-miterlimit:4;stroke-dasharray:none;stroke-opacity:1"
       d="m 394.9821,670.42582 150.67581,0.0644"
       id="path4558-1-3-7-6-7"
       inkscape:connector-curvature="0"
       sodipodi:nodetypes="cc" />
    <rect
       style="color:#000000;clip-rule:nonzero;display:inline;overflow:visible;visibility:visible;opacity:1;isolation:auto;mix-blend-mode:normal;color-interpolation:sRGB;color-interpolation-filters:linearRGB;solid-color:#000000;solid-opacity:1;fill:#333333;fill-opacity:1;fill-rule:nonzero;stroke:#8b9fba;stroke-width:4;stroke-linecap:butt;stroke-linejoin:round;stroke-miterlimit:0;stroke-dasharray:none;stroke-dashoffset:0;stroke-opacity:1;color-rendering:auto;image-rendering:auto;shape-rendering:auto;text-rendering:auto;enable-background:accumulate"
       id="rect8702-3-3-2-7-4"
       width="70.599113"
       height="60.001972"
       x="322.86758"
       y="639.31976" />
    <path
       style="fill:none;fill-rule:evenodd;stroke:#8b9fba;stroke-width:4;stroke-linecap:round;stroke-linejoin:round;stroke-miterlimit:4;stroke-dasharray:none;stroke-opacity:1"
       d="m 311.28121,670.37605 11.05055,0.2571"
       id="path4558-1-3-7-5-6"
       inkscape:connector-curvature="0"
       sodipodi:nodetypes="cc" />
    <text
       xml:space="preserve"
       style="font-style:normal;font-weight:normal;font-size:28.58349609px;line-height:125%;font-family:Sans;letter-spacing:0px;word-spacing:0px;fill:#000000;fill-opacity:1;stroke:none;stroke-width:1px;stroke-linecap:butt;stroke-linejoin:miter;stroke-opacity:1"
       x="400.20129"
       y="774.13611"
       id="text8726-3"
       sodipodi:linespacing="125%"><tspan
         sodipodi:role="line"
         id="tspan8728-9"
         x="400.20129"
         y="774.13611"
         style="font-style:normal;font-variant:normal;font-weight:normal;font-stretch:normal;font-size:22.5px;font-family:'Open Sans';-inkscape-font-specification:'Open Sans';fill:#ffffff">&quot;client2: Hi!&quot;</tspan></text>
    <path
       style="fill:none;fill-rule:evenodd;stroke:#8b9fba;stroke-width:4;stroke-linecap:butt;stroke-linejoin:miter;stroke-miterlimit:4;stroke-dasharray:16, 16;stroke-dashoffset:0;stroke-opacity:1"
       d="m 171.97358,670.40188 126.66194,0 12.4247,0"
       id="path9655-2-3-2-9-7"
       inkscape:connector-curvature="0"
       sodipodi:nodetypes="ccc" />
    <text
       xml:space="preserve"
       style="font-style:normal;font-weight:normal;font-size:28.58349609px;line-height:125%;font-family:Sans;letter-spacing:0px;word-spacing:0px;fill:#000000;fill-opacity:1;stroke:none;stroke-width:1px;stroke-linecap:butt;stroke-linejoin:miter;stroke-opacity:1"
       x="342.22586"
       y="678.50214"
       id="text8726-0-9-2-4-6"
       sodipodi:linespacing="125%"><tspan
         sodipodi:role="line"
         id="tspan8728-5-9-6-9-5"
         x="342.22586"
         y="678.50214"
         style="font-style:normal;font-variant:normal;font-weight:normal;font-stretch:normal;font-family:'Open Sans';-inkscape-font-specification:'Open Sans';fill:#ffffff">nc</tspan></text>
    <path
       style="fill:none;fill-rule:evenodd;stroke:#8b9fba;stroke-width:4;stroke-linecap:round;stroke-linejoin:round;stroke-miterlimit:4;stroke-dasharray:none;stroke-opacity:1"
       d="m 165.2918,670.34686 16.29882,0.004"
       id="path4558-1-3-7-53"
       inkscape:connector-curvature="0"
       sodipodi:nodetypes="cc" />
    <g
       transform="matrix(0.37053928,0,0,0.37053928,6.8902279,471.0958)"
       inkscape:label="Camada 1"
       id="layer1-7-8-8-2-9">
      <g
         transform="translate(-131.541,88.019993)"
         id="g3771-9-6-4-9">
        <g
           id="g4079-8-3-9-8"
           transform="matrix(0.5,0,0,0.5,52.346,193.49)">
          <path
             id="path3172-8-4-6-5-1"
             d="m 1022.1,253.54 c 0,-6.627 -5.373,-12 -12,-12 l -774.96,0 c -6.627,0 -12,5.373 -12,12 l 0,507 c 0,6.627 5.373,12 12,12 l 775,0 c 6.627,0 12,-5.373 12,-12 l 0,-507 z"
             style="fill:#fcfcfc;stroke:#565656;stroke-width:5;stroke-miterlimit:4;stroke-dasharray:none;stroke-opacity:1"
             inkscape:connector-curvature="0" />
          <path
             inkscape:connector-curvature="0"
             style="fill:#fcfcfc;stroke:none"
             d="m 1022.1,253.54 c 0,-6.627 -5.373,-12 -12,-12 l -774.96,0 c -6.627,0 -12,5.373 -12,12 l 0,507 c 0,6.627 5.373,12 12,12 l 775,0 c 6.627,0 12,-5.373 12,-12 l 0,-507 z"
             id="path3769-3-5-6-1" />
          <path
             id="path3172-3-4-8-1"
             style="fill:#e8e8e8"
             inkscape:connector-curvature="0"
             d="m 235.14,241.67 c -6.627,0 -12,4.5017 -12,10.054 l 0,72.63 799,0 0,-72.63 c 0,-5.5524 -5.373,-10.054 -12,-10.054 l -775,0 z" />
          <circle
             id="path4555-9-8-1-0"
             style="fill:#949494;fill-opacity:1"
             transform="matrix(0.5614,0,0,0.5614,-136.38,51.58)"
             cx="704.88287"
             cy="412.23389"
             r="10.814074" />
          <use
             style="fill:#949494;fill-opacity:1"
             id="use4557-5-2-2-0"
             xlink:href="#path4555-9-8-1-0"
             transform="translate(23.732,2.3452e-6)"
             height="1000"
             width="1600"
             y="0"
             x="0" />
          <use
             style="fill:#949494;fill-opacity:1"
             id="use4559-6-8-6-0"
             xlink:href="#use4557-5-2-2-0"
             transform="translate(23.733,2.3452e-6)"
             height="1000"
             width="1600"
             y="0"
             x="0" />
          <rect
             id="rect4561-7-1-6-3"
             style="fill:#ffffff"
             rx="3"
             ry="3"
             height="35.386002"
             width="611.53998"
             y="265.32001"
             x="340.01001" />
          <path
             id="path3116-6-4-0-1"
             sodipodi:nodetypes="sssccccssscccccs"
             style="color:#000000;text-indent:0;text-transform:none;block-progression:tb;fill:#949494;fill-opacity:1"
             inkscape:connector-curvature="0"
             d="m 368.68,274.4 c -4.7279,0 -8.5625,3.8486 -8.5625,8.5938 0,4.7452 3.8343,8.625 8.5625,8.625 3.5302,0 6.5631,-2.1516 7.875,-5.2188 l 0.21875,-0.53125 c -0.98428,-0.29608 -1.7553,-0.55578 -2.6562,-0.84375 l -0.1875,0.40625 c -0.9148,1.9855 -2.9263,3.3438 -5.25,3.3438 -3.1883,0 -5.75,-2.575 -5.75,-5.7812 0,-3.2062 2.5612,-5.7812 5.75,-5.7812 2.4587,0 4.4818,1.5788 5.3125,3.75 l -1.5938,0 3.2561,3.7057 3.4314,-3.7057 -2.1562,0 c -0.92162,-3.7541 -4.2305,-6.5625 -8.25,-6.5625 z" />
          <rect
             id="rect3935-0-0-2-7"
             style="fill:#949494;fill-opacity:1"
             height="4.8562999"
             width="22.931999"
             y="273.97"
             x="973.95001" />
          <use
             style="fill:#949494;fill-opacity:1"
             id="use3937-3-3-3-4"
             xlink:href="#rect3935-0-0-2-7"
             transform="translate(-1.4942e-6,6.6099)"
             height="1000"
             width="1600"
             y="0"
             x="0" />
          <use
             style="fill:#949494;fill-opacity:1"
             id="use3939-5-3-6-0"
             xlink:href="#use3937-3-3-3-4"
             transform="translate(-1.4942e-6,6.6099)"
             height="1000"
             width="1600"
             y="0"
             x="0" />
          <rect
             id="rect4551-2-5-4-5"
             style="fill:#dedede"
             height="2.4623001"
             width="799"
             y="323.81"
             x="223.14" />
        </g>
        <text
           id="text4412-2-6-4-0"
           style="font-size:8px;line-height:125%;font-family:Sans;letter-spacing:0px;word-spacing:0px;fill:#5b5b5b;fill-opacity:1"
           xml:space="preserve"
           y="337.47412"
           x="247.11682"
           sodipodi:linespacing="125%"><tspan
             id="tspan4414-8-8-0-7"
             sodipodi:role="line"
             x="247.11682"
             style="font-size:8px;fill:#5b5b5b;fill-opacity:1"
             y="337.47412">http://example.com</tspan></text>
      </g>
    </g>
    <path
       style="fill:none;fill-rule:evenodd;stroke:#8b9fba;stroke-width:4.00372267;stroke-linecap:round;stroke-linejoin:round;stroke-miterlimit:4;stroke-dasharray:none;stroke-opacity:1"
       d="m 394.9821,792.42582 150.67581,0.0644"
       id="path4558-1-3-7-6-8"
       inkscape:connector-curvature="0"
       sodipodi:nodetypes="cc" />
    <rect
       style="color:#000000;clip-rule:nonzero;display:inline;overflow:visible;visibility:visible;opacity:1;isolation:auto;mix-blend-mode:normal;color-interpolation:sRGB;color-interpolation-filters:linearRGB;solid-color:#000000;solid-opacity:1;fill:#333333;fill-opacity:1;fill-rule:nonzero;stroke:#8b9fba;stroke-width:4;stroke-linecap:butt;stroke-linejoin:round;stroke-miterlimit:0;stroke-dasharray:none;stroke-dashoffset:0;stroke-opacity:1;color-rendering:auto;image-rendering:auto;shape-rendering:auto;text-rendering:auto;enable-background:accumulate"
       id="rect8702-3-3-2-7-61"
       width="70.599113"
       height="60.001972"
       x="322.86758"
       y="761.31976" />
    <path
       style="fill:none;fill-rule:evenodd;stroke:#8b9fba;stroke-width:4;stroke-linecap:round;stroke-linejoin:round;stroke-miterlimit:4;stroke-dasharray:none;stroke-opacity:1"
       d="m 311.28121,792.37605 11.05055,0.2571"
       id="path4558-1-3-7-5-3"
       inkscape:connector-curvature="0"
       sodipodi:nodetypes="cc" />
    <path
       style="fill:none;fill-rule:evenodd;stroke:#8b9fba;stroke-width:4;stroke-linecap:butt;stroke-linejoin:miter;stroke-miterlimit:4;stroke-dasharray:16, 16;stroke-dashoffset:0;stroke-opacity:1"
       d="m 171.97358,792.40188 126.66194,0 12.4247,0"
       id="path9655-2-3-2-9-4"
       inkscape:connector-curvature="0"
       sodipodi:nodetypes="ccc" />
    <text
       xml:space="preserve"
       style="font-style:normal;font-weight:normal;font-size:28.58349609px;line-height:125%;font-family:Sans;letter-spacing:0px;word-spacing:0px;fill:#000000;fill-opacity:1;stroke:none;stroke-width:1px;stroke-linecap:butt;stroke-linejoin:miter;stroke-opacity:1"
       x="342.22586"
       y="800.50214"
       id="text8726-0-9-2-4-3"
       sodipodi:linespacing="125%"><tspan
         sodipodi:role="line"
         id="tspan8728-5-9-6-9-54"
         x="342.22586"
         y="800.50214"
         style="font-style:normal;font-variant:normal;font-weight:normal;font-stretch:normal;font-family:'Open Sans';-inkscape-font-specification:'Open Sans';fill:#ffffff">nc</tspan></text>
    <path
       style="fill:none;fill-rule:evenodd;stroke:#8b9fba;stroke-width:4;stroke-linecap:round;stroke-linejoin:round;stroke-miterlimit:4;stroke-dasharray:none;stroke-opacity:1"
       d="m 165.2918,792.34686 16.29882,0.004"
       id="path4558-1-3-7-56"
       inkscape:connector-curvature="0"
       sodipodi:nodetypes="cc" />
    <g
       transform="matrix(0.37053928,0,0,0.37053928,6.8902279,593.0958)"
       inkscape:label="Camada 1"
       id="layer1-7-8-8-2-2">
      <g
         transform="translate(-131.541,88.019993)"
         id="g3771-9-6-4-0">
        <g
           id="g4079-8-3-9-0"
           transform="matrix(0.5,0,0,0.5,52.346,193.49)">
          <path
             id="path3172-8-4-6-5-0"
             d="m 1022.1,253.54 c 0,-6.627 -5.373,-12 -12,-12 l -774.96,0 c -6.627,0 -12,5.373 -12,12 l 0,507 c 0,6.627 5.373,12 12,12 l 775,0 c 6.627,0 12,-5.373 12,-12 l 0,-507 z"
             style="fill:#fcfcfc;stroke:#565656;stroke-width:5;stroke-miterlimit:4;stroke-dasharray:none;stroke-opacity:1"
             inkscape:connector-curvature="0" />
          <path
             inkscape:connector-curvature="0"
             style="fill:#fcfcfc;stroke:none"
             d="m 1022.1,253.54 c 0,-6.627 -5.373,-12 -12,-12 l -774.96,0 c -6.627,0 -12,5.373 -12,12 l 0,507 c 0,6.627 5.373,12 12,12 l 775,0 c 6.627,0 12,-5.373 12,-12 l 0,-507 z"
             id="path3769-3-5-6-4" />
          <path
             id="path3172-3-4-8-2"
             style="fill:#e8e8e8"
             inkscape:connector-curvature="0"
             d="m 235.14,241.67 c -6.627,0 -12,4.5017 -12,10.054 l 0,72.63 799,0 0,-72.63 c 0,-5.5524 -5.373,-10.054 -12,-10.054 l -775,0 z" />
          <circle
             id="path4555-9-8-1-04"
             style="fill:#949494;fill-opacity:1"
             transform="matrix(0.5614,0,0,0.5614,-136.38,51.58)"
             cx="704.88287"
             cy="412.23389"
             r="10.814074" />
          <use
             style="fill:#949494;fill-opacity:1"
             id="use4557-5-2-2-7"
             xlink:href="#path4555-9-8-1-04"
             transform="translate(23.732,2.3452e-6)"
             height="1000"
             width="1600"
             y="0"
             x="0" />
          <use
             style="fill:#949494;fill-opacity:1"
             id="use4559-6-8-6-02"
             xlink:href="#use4557-5-2-2-7"
             transform="translate(23.733,2.3452e-6)"
             height="1000"
             width="1600"
             y="0"
             x="0" />
          <rect
             id="rect4561-7-1-6-35"
             style="fill:#ffffff"
             rx="3"
             ry="3"
             height="35.386002"
             width="611.53998"
             y="265.32001"
             x="340.01001" />
          <path
             id="path3116-6-4-0-3"
             sodipodi:nodetypes="sssccccssscccccs"
             style="color:#000000;text-indent:0;text-transform:none;block-progression:tb;fill:#949494;fill-opacity:1"
             inkscape:connector-curvature="0"
             d="m 368.68,274.4 c -4.7279,0 -8.5625,3.8486 -8.5625,8.5938 0,4.7452 3.8343,8.625 8.5625,8.625 3.5302,0 6.5631,-2.1516 7.875,-5.2188 l 0.21875,-0.53125 c -0.98428,-0.29608 -1.7553,-0.55578 -2.6562,-0.84375 l -0.1875,0.40625 c -0.9148,1.9855 -2.9263,3.3438 -5.25,3.3438 -3.1883,0 -5.75,-2.575 -5.75,-5.7812 0,-3.2062 2.5612,-5.7812 5.75,-5.7812 2.4587,0 4.4818,1.5788 5.3125,3.75 l -1.5938,0 3.2561,3.7057 3.4314,-3.7057 -2.1562,0 c -0.92162,-3.7541 -4.2305,-6.5625 -8.25,-6.5625 z" />
          <rect
             id="rect3935-0-0-2-5"
             style="fill:#949494;fill-opacity:1"
             height="4.8562999"
             width="22.931999"
             y="273.97"
             x="973.95001" />
          <use
             style="fill:#949494;fill-opacity:1"
             id="use3937-3-3-3-5"
             xlink:href="#rect3935-0-0-2-5"
             transform="translate(-1.4942e-6,6.6099)"
             height="1000"
             width="1600"
             y="0"
             x="0" />
          <use
             style="fill:#949494;fill-opacity:1"
             id="use3939-5-3-6-4"
             xlink:href="#use3937-3-3-3-5"
             transform="translate(-1.4942e-6,6.6099)"
             height="1000"
             width="1600"
             y="0"
             x="0" />
          <rect
             id="rect4551-2-5-4-3"
             style="fill:#dedede"
             height="2.4623001"
             width="799"
             y="323.81"
             x="223.14" />
        </g>
        <text
           id="text4412-2-6-4-7"
           style="font-size:8px;line-height:125%;font-family:Sans;letter-spacing:0px;word-spacing:0px;fill:#5b5b5b;fill-opacity:1"
           xml:space="preserve"
           y="337.47412"
           x="247.11682"
           sodipodi:linespacing="125%"><tspan
             id="tspan4414-8-8-0-4"
             sodipodi:role="line"
             x="247.11682"
             style="font-size:8px;fill:#5b5b5b;fill-opacity:1"
             y="337.47412">http://example.com</tspan></text>
      </g>
    </g>
    <path
       style="fill:none;fill-rule:evenodd;stroke:#8b9fba;stroke-width:4.00372267;stroke-linecap:round;stroke-linejoin:round;stroke-miterlimit:4;stroke-dasharray:none;stroke-opacity:1"
       d="m 394.9821,934.42582 150.67581,0.0644"
       id="path4558-1-3-7-6-9"
       inkscape:connector-curvature="0"
       sodipodi:nodetypes="cc" />
    <rect
       style="color:#000000;clip-rule:nonzero;display:inline;overflow:visible;visibility:visible;opacity:1;isolation:auto;mix-blend-mode:normal;color-interpolation:sRGB;color-interpolation-filters:linearRGB;solid-color:#000000;solid-opacity:1;fill:#333333;fill-opacity:1;fill-rule:nonzero;stroke:#8b9fba;stroke-width:4;stroke-linecap:butt;stroke-linejoin:round;stroke-miterlimit:0;stroke-dasharray:none;stroke-dashoffset:0;stroke-opacity:1;color-rendering:auto;image-rendering:auto;shape-rendering:auto;text-rendering:auto;enable-background:accumulate"
       id="rect8702-3-3-2-7-1"
       width="70.599113"
       height="60.001972"
       x="322.86758"
       y="903.31976" />
    <path
       style="fill:none;fill-rule:evenodd;stroke:#8b9fba;stroke-width:4;stroke-linecap:round;stroke-linejoin:round;stroke-miterlimit:4;stroke-dasharray:none;stroke-opacity:1"
       d="m 311.28121,934.37605 11.05055,0.2571"
       id="path4558-1-3-7-5-7"
       inkscape:connector-curvature="0"
       sodipodi:nodetypes="cc" />
    <path
       style="fill:none;fill-rule:evenodd;stroke:#8b9fba;stroke-width:4;stroke-linecap:butt;stroke-linejoin:miter;stroke-miterlimit:4;stroke-dasharray:16, 16;stroke-dashoffset:0;stroke-opacity:1"
       d="m 171.97358,934.40188 126.66194,0 12.4247,0"
       id="path9655-2-3-2-9-1"
       inkscape:connector-curvature="0"
       sodipodi:nodetypes="ccc" />
    <text
       xml:space="preserve"
       style="font-style:normal;font-weight:normal;font-size:28.58349609px;line-height:125%;font-family:Sans;letter-spacing:0px;word-spacing:0px;fill:#000000;fill-opacity:1;stroke:none;stroke-width:1px;stroke-linecap:butt;stroke-linejoin:miter;stroke-opacity:1"
       x="342.22586"
       y="942.50214"
       id="text8726-0-9-2-4-68"
       sodipodi:linespacing="125%"><tspan
         sodipodi:role="line"
         id="tspan8728-5-9-6-9-7"
         x="342.22586"
         y="942.50214"
         style="font-style:normal;font-variant:normal;font-weight:normal;font-stretch:normal;font-family:'Open Sans';-inkscape-font-specification:'Open Sans';fill:#ffffff">nc</tspan></text>
    <path
       style="fill:none;fill-rule:evenodd;stroke:#8b9fba;stroke-width:4;stroke-linecap:round;stroke-linejoin:round;stroke-miterlimit:4;stroke-dasharray:none;stroke-opacity:1"
       d="m 165.2918,934.34686 16.29882,0.004"
       id="path4558-1-3-7-1"
       inkscape:connector-curvature="0"
       sodipodi:nodetypes="cc" />
    <g
       transform="matrix(0.37053928,0,0,0.37053928,6.8902279,735.0958)"
       inkscape:label="Camada 1"
       id="layer1-7-8-8-2-6">
      <g
         transform="translate(-131.541,88.019993)"
         id="g3771-9-6-4-93">
        <g
           id="g4079-8-3-9-6"
           transform="matrix(0.5,0,0,0.5,52.346,193.49)">
          <path
             id="path3172-8-4-6-5-00"
             d="m 1022.1,253.54 c 0,-6.627 -5.373,-12 -12,-12 l -774.96,0 c -6.627,0 -12,5.373 -12,12 l 0,507 c 0,6.627 5.373,12 12,12 l 775,0 c 6.627,0 12,-5.373 12,-12 l 0,-507 z"
             style="fill:#fcfcfc;stroke:#565656;stroke-width:5;stroke-miterlimit:4;stroke-dasharray:none;stroke-opacity:1"
             inkscape:connector-curvature="0" />
          <path
             inkscape:connector-curvature="0"
             style="fill:#fcfcfc;stroke:none"
             d="m 1022.1,253.54 c 0,-6.627 -5.373,-12 -12,-12 l -774.96,0 c -6.627,0 -12,5.373 -12,12 l 0,507 c 0,6.627 5.373,12 12,12 l 775,0 c 6.627,0 12,-5.373 12,-12 l 0,-507 z"
             id="path3769-3-5-6-0" />
          <path
             id="path3172-3-4-8-0"
             style="fill:#e8e8e8"
             inkscape:connector-curvature="0"
             d="m 235.14,241.67 c -6.627,0 -12,4.5017 -12,10.054 l 0,72.63 799,0 0,-72.63 c 0,-5.5524 -5.373,-10.054 -12,-10.054 l -775,0 z" />
          <circle
             id="path4555-9-8-1-4"
             style="fill:#949494;fill-opacity:1"
             transform="matrix(0.5614,0,0,0.5614,-136.38,51.58)"
             cx="704.88287"
             cy="412.23389"
             r="10.814074" />
          <use
             style="fill:#949494;fill-opacity:1"
             id="use4557-5-2-2-02"
             xlink:href="#path4555-9-8-1-4"
             transform="translate(23.732,2.3452e-6)"
             height="1000"
             width="1600"
             y="0"
             x="0" />
          <use
             style="fill:#949494;fill-opacity:1"
             id="use4559-6-8-6-6"
             xlink:href="#use4557-5-2-2-02"
             transform="translate(23.733,2.3452e-6)"
             height="1000"
             width="1600"
             y="0"
             x="0" />
          <rect
             id="rect4561-7-1-6-37"
             style="fill:#ffffff"
             rx="3"
             ry="3"
             height="35.386002"
             width="611.53998"
             y="265.32001"
             x="340.01001" />
          <path
             id="path3116-6-4-0-18"
             sodipodi:nodetypes="sssccccssscccccs"
             style="color:#000000;text-indent:0;text-transform:none;block-progression:tb;fill:#949494;fill-opacity:1"
             inkscape:connector-curvature="0"
             d="m 368.68,274.4 c -4.7279,0 -8.5625,3.8486 -8.5625,8.5938 0,4.7452 3.8343,8.625 8.5625,8.625 3.5302,0 6.5631,-2.1516 7.875,-5.2188 l 0.21875,-0.53125 c -0.98428,-0.29608 -1.7553,-0.55578 -2.6562,-0.84375 l -0.1875,0.40625 c -0.9148,1.9855 -2.9263,3.3438 -5.25,3.3438 -3.1883,0 -5.75,-2.575 -5.75,-5.7812 0,-3.2062 2.5612,-5.7812 5.75,-5.7812 2.4587,0 4.4818,1.5788 5.3125,3.75 l -1.5938,0 3.2561,3.7057 3.4314,-3.7057 -2.1562,0 c -0.92162,-3.7541 -4.2305,-6.5625 -8.25,-6.5625 z" />
          <rect
             id="rect3935-0-0-2-57"
             style="fill:#949494;fill-opacity:1"
             height="4.8562999"
             width="22.931999"
             y="273.97"
             x="973.95001" />
          <use
             style="fill:#949494;fill-opacity:1"
             id="use3937-3-3-3-1"
             xlink:href="#rect3935-0-0-2-57"
             transform="translate(-1.4942e-6,6.6099)"
             height="1000"
             width="1600"
             y="0"
             x="0" />
          <use
             style="fill:#949494;fill-opacity:1"
             id="use3939-5-3-6-2"
             xlink:href="#use3937-3-3-3-1"
             transform="translate(-1.4942e-6,6.6099)"
             height="1000"
             width="1600"
             y="0"
             x="0" />
          <rect
             id="rect4551-2-5-4-1"
             style="fill:#dedede"
             height="2.4623001"
             width="799"
             y="323.81"
             x="223.14" />
        </g>
        <text
           id="text4412-2-6-4-2"
           style="font-size:8px;line-height:125%;font-family:Sans;letter-spacing:0px;word-spacing:0px;fill:#5b5b5b;fill-opacity:1"
           xml:space="preserve"
           y="337.47412"
           x="247.11682"
           sodipodi:linespacing="125%"><tspan
             id="tspan4414-8-8-0-5"
             sodipodi:role="line"
             x="247.11682"
             style="font-size:8px;fill:#5b5b5b;fill-opacity:1"
             y="337.47412">http://example.com</tspan></text>
      </g>
    </g>
    <rect
       style="color:#000000;clip-rule:nonzero;display:inline;overflow:visible;visibility:visible;opacity:1;isolation:auto;mix-blend-mode:normal;color-interpolation:sRGB;color-interpolation-filters:linearRGB;solid-color:#000000;solid-opacity:1;fill:#333333;fill-opacity:1;fill-rule:nonzero;stroke:#8b9fba;stroke-width:4;stroke-linecap:butt;stroke-linejoin:round;stroke-miterlimit:0;stroke-dasharray:none;stroke-dashoffset:0;stroke-opacity:1;color-rendering:auto;image-rendering:auto;shape-rendering:auto;text-rendering:auto;enable-background:accumulate"
       id="rect8702-3-3-2-7-6"
       width="91.829926"
       height="324.15106"
       x="533.82947"
       y="639.08038" />
    <text
       xml:space="preserve"
       style="font-style:normal;font-weight:normal;font-size:28.58349609px;line-height:125%;font-family:Sans;letter-spacing:0px;word-spacing:0px;fill:#000000;fill-opacity:1;stroke:none;stroke-width:1px;stroke-linecap:butt;stroke-linejoin:miter;stroke-opacity:1"
       x="552.22583"
       y="800.50214"
       id="text8726-0-9-2-4-6-8"
       sodipodi:linespacing="125%"><tspan
         sodipodi:role="line"
         id="tspan8728-5-9-6-9-5-6"
         x="552.22583"
         y="800.50214"
         style="font-style:normal;font-variant:normal;font-weight:normal;font-stretch:normal;font-family:'Open Sans';-inkscape-font-specification:'Open Sans';fill:#ffffff">chat</tspan></text>
    <text
       xml:space="preserve"
       style="font-style:normal;font-weight:normal;font-size:28.58349609px;line-height:125%;font-family:Sans;letter-spacing:0px;word-spacing:0px;fill:#000000;fill-opacity:1;stroke:none;stroke-width:1px;stroke-linecap:butt;stroke-linejoin:miter;stroke-opacity:1"
       x="81.993309"
       y="871.13611"
       id="text8726-3-9"
       sodipodi:linespacing="125%"><tspan
         sodipodi:role="line"
         id="tspan8728-9-1"
         x="81.993309"
         y="871.13611"
         style="font-style:normal;font-variant:normal;font-weight:normal;font-stretch:normal;font-family:'Open Sans';-inkscape-font-specification:'Open Sans';fill:#ffffff">...</tspan></text>
    <text
       xml:space="preserve"
       style="font-style:normal;font-weight:normal;font-size:28.58349609px;line-height:125%;font-family:Sans;letter-spacing:0px;word-spacing:0px;fill:#000000;fill-opacity:1;stroke:none;stroke-width:1px;stroke-linecap:butt;stroke-linejoin:miter;stroke-opacity:1"
       x="400.20129"
       y="653.13611"
       id="text8726-3-2"
       sodipodi:linespacing="125%"><tspan
         sodipodi:role="line"
         id="tspan8728-9-9"
         x="400.20129"
         y="653.13611"
         style="font-style:normal;font-variant:normal;font-weight:normal;font-stretch:normal;font-size:22.5px;font-family:'Open Sans';-inkscape-font-specification:'Open Sans';fill:#ffffff">&quot;client2: Hi!&quot;</tspan></text>
    <text
       xml:space="preserve"
       style="font-style:normal;font-weight:normal;font-size:28.58349609px;line-height:125%;font-family:Sans;letter-spacing:0px;word-spacing:0px;fill:#000000;fill-opacity:1;stroke:none;stroke-width:1px;stroke-linecap:butt;stroke-linejoin:miter;stroke-opacity:1"
       x="400.20129"
       y="916.13611"
       id="text8726-3-8"
       sodipodi:linespacing="125%"><tspan
         sodipodi:role="line"
         id="tspan8728-9-6"
         x="400.20129"
         y="916.13611"
         style="font-style:normal;font-variant:normal;font-weight:normal;font-stretch:normal;font-size:22.5px;font-family:'Open Sans';-inkscape-font-specification:'Open Sans';fill:#ffffff">&quot;client2: Hi!&quot;</tspan></text>
    <text
       xml:space="preserve"
       style="font-style:normal;font-weight:normal;font-size:28.58349609px;line-height:125%;font-family:Sans;letter-spacing:0px;word-spacing:0px;fill:#000000;fill-opacity:1;stroke:none;stroke-width:1px;stroke-linecap:butt;stroke-linejoin:miter;stroke-opacity:1"
       x="347.28622"
       y="871.13611"
       id="text8726-3-9-6"
       sodipodi:linespacing="125%"><tspan
         sodipodi:role="line"
         id="tspan8728-9-1-3"
         x="347.28622"
         y="871.13611"
         style="font-style:normal;font-variant:normal;font-weight:normal;font-stretch:normal;font-family:'Open Sans';-inkscape-font-specification:'Open Sans';fill:#ffffff">...</tspan></text>
  </g>
</svg>
